PathFileType	4	(X/Y/Z)	pose_F01_0-96.trc
DataRate	CameraRate	NumFrames	NumMarkers	Units	OrigDataRate	OrigDataStartFrame	OrigNumFrames
30	30	9	21	m	30	84	96
Frame#	Time	CHip			RHip			RKnee			RAnkle			RBigToe			RSmallToe			RHeel			LHip			LKnee			LAnkle			LBigToe			LSmallToe			LHeel			Neck			Nose			RShoulder			RElbow			RWrist			LShoulder			LElbow			LWrist			
		X1	Y1	Z1	X2	Y2	Z2	X3	Y3	Z3	X4	Y4	Z4	X5	Y5	Z5	X6	Y6	Z6	X7	Y7	Z7	X8	Y8	Z8	X9	Y9	Z9	X10	Y10	Z10	X11	Y11	Z11	X12	Y12	Z12	X13	Y13	Z13	X14	Y14	Z14	X15	Y15	Z15	X16	Y16	Z16	X17	Y17	Z17	X18	Y18	Z18	X19	Y19	Z19	X20	Y20	Z20	X21	Y21	Z21	
84	2.8	-0.29765307840910865	1.877239915323331	-0.5712452132894407	-0.30890020629037573	1.873658646812065	-0.5032553505165142	-0.31260140165667666	1.726059337722068	-0.4700434106243946	-0.29275629158682925	1.556563569451173	-0.4336830566168926	-0.29140363788069096	1.5357540760203483	-0.40918548111252245	-0.3025768304816565	1.537789035873211	-0.382439159643067	-0.35055074114616874	1.5530865681438886	-0.3988537843266284	-0.2895997455388109	1.880864233135243	-0.6265848296628413	-0.2952477826919693	1.7338697774769138	-0.6373714254203042													-0.3039527761492292	2.047945648568331	-0.5782520523886832	-0.26822227077805416	2.115084749565708	-0.5876601829290188	-0.3185286787893281	2.042981040219281	-0.4904232539145907	-0.3098306462768976	1.9613176708341375	-0.4372868416068806	-0.26349787612017256	2.006843837311137	-0.4131321226139744	-0.2892944473982937	2.0503074690834215	-0.663914092585569	-0.2660361543680223	1.9748188234367559	-0.7108091801460064	-0.2289748192985022	2.0319968434117066	-0.7046187272073889
85	2.8333333333333335	-0.2978689854380787	1.8734627311644136	-0.5708241496564963	-0.3091533748334343	1.8703488962670185	-0.5026624572723595	-0.3130344069890255	1.723154444105793	-0.46943619036740264	-0.29275629158682925	1.556563569451173	-0.4336830566168926	-0.29314686931599776	1.5347838359660737	-0.4070593122263358	-0.3030560022192519	1.536246811928645	-0.37706374202156645	-0.35055074114616874	1.5530865681438886	-0.3988537843266284	-0.28850676248723156	1.8771443386568973	-0.631233184302551	-0.2960500388432089	1.7337310841905478	-0.637942566335395													-0.3050178595789288	2.0464197023364883	-0.5814979524616695	-0.2670820079274776	2.115316017335159	-0.5927543784567001	-0.3186176405881711	2.0416043787560114	-0.4905349011945583	-0.3168801658600221	1.9551357487427377	-0.4478690835797755	-0.2696649657746971	1.9528313514382414	-0.4054151977657361	-0.28811085138078235	2.050744094210304	-0.6691677981870665	-0.27949830802189635	1.9668440276038328	-0.6967255774958772	-0.2211222000678295	2.0093187671978927	-0.7109597977563659
86	2.8666666666666667	-0.2946070564706606	1.8774754200381052	-0.5702702762531401	-0.3047042359982586	1.8721424939014042	-0.507382578476161	-0.31440368430645416	1.724993234986779	-0.4711210609301699	-0.29275629158682925	1.556563569451173	-0.4336830566168926	-0.2914474791611716	1.5361014129338382	-0.40926649464404874	-0.30246926503509924	1.5373059622968774	-0.3824806846317786	-0.35055074114616874	1.5530865681438886	-0.3988537843266284	-0.2872163410726317	1.881447795711448	-0.6285130203778961	-0.29685229499444854	1.7335923909041817	-0.638513707250486													-0.3039742478450713	2.0462527615703534	-0.5786844219014894	-0.26302758740416515	2.117805300684969	-0.5972839847251542	-0.31280465555083165	2.041307402429479	-0.4967438054485689	-0.31584890805172117	1.9545197135695078	-0.4529029182890478	-0.2758320554292216	1.8988188655653462	-0.3976982729174977	-0.2881236327408574	2.050553913090347	-0.669211921816491	-0.28600611494492534	1.9699548278176824	-0.6993517848724587	-1.2615109146574293	1.8492321856800062	0.37055976511526467
87	2.9	-0.2945375754833492	1.8755785311604025	-0.570122336498599	-0.30280745917102225	1.869211426972671	-0.509189623821046	-0.3157729616238828	1.7268320258677647	-0.47280593149293715	-0.29275629158682925	1.556563569451173	-0.4336830566168926	-0.2911380199385778	1.534559977746433	-0.4092425639017101	-0.3024124676021946	1.5370565464610013	-0.38251998174360424	-0.35055074114616874	1.5530865681438886	-0.3988537843266284	-0.2871777663916029	1.8795299800729246	-0.6283476233582485	-0.2976545511456882	1.7334536976178156	-0.6390848481655769													-0.3019620857310558	2.04583954940249	-0.5807042052339639	-0.2629913819849392	2.1179068429731163	-0.5973338731154114	-0.30784102213364034	2.040950214899772	-0.4979762094802909	-0.31520038200310485	1.9509711746863088	-0.45773406067754857	-0.29555368276326316	1.8841134648443927	-0.39956471070138955	-0.2881305309001239	2.049047727982135	-0.6692920730358813	-0.28321975320936255	1.966601518119337	-0.6985336374431491	-0.24233281157233952	1.8949489000378472	-0.6949123743006987
88	2.933333333333333	-0.2956638329752927	1.8787760741708512	-0.5736533065770861	-0.3029729553597695	1.8731555377138294	-0.5097164447432854	-0.31714223894131144	1.7286708167487506	-0.47449080205570443	-0.29275629158682925	1.556563569451173	-0.4336830566168926	-0.29118348950535244	1.5349973109605681	-0.40918689335997616	-0.30225362913885884	1.5363664910581756	-0.3824529850185775	-0.35055074114616874	1.5530865681438886	-0.3988537843266284	-0.2874751493197915	1.880815432110184	-0.6286790567804964	-0.2984568072969278	1.7333150043314496	-0.6396559890806677													-0.29885272557011605	2.0468345593582375	-0.5796998017395882	-0.2628892149518173	2.1203018528547863	-0.5977226817511586	-0.3077410430280553	2.042679188378834	-0.49840502904042056	-0.31432884417658313	1.9505569571167067	-0.4631425931307462	-0.2974780390643606	1.879326507427854	-0.41936083597885504	-0.2850243557428606	2.049973837021364	-0.6682931158539935	-0.28147205801266906	1.9601944974225762	-0.6914381384124731	-0.2590411473343384	1.88169879065319	-0.6897470894112137
89	2.966666666666667	-0.29376788326353553	1.8738892110343788	-0.5666887851513346	-0.3019012740546175	1.8692508642221122	-0.5057879656636116	-0.3178076962664614	1.7268068915268573	-0.4738038032862633	-0.33926110375743057	1.5688814091622842	-0.4028873927619946	-0.2926828783597837	1.5339793891558826	-0.4118569413439769	-0.30275321332673677	1.5361896038325056	-0.38191717012407217	-0.3497370567344509	1.5556212053279477	-0.40438215294176755	-0.2873121947299883	1.8764641901441208	-0.628230697662577	-0.29925906344816744	1.7331763110450835	-0.6402271299957585													-0.29483960590050434	2.0456954877901645	-0.5839642552917709	-0.2618388119822046	2.120394007297593	-0.5948828255931358	-0.3048028835566817	2.042458602240127	-0.49729681651165736	-1.6506974307567375	1.8752488679006654	0.972592237454297	-0.31413879271692463	1.8956219609495768	-0.46978763887175634	-0.2808169321599042	2.0472972974324533	-0.672375423423612	-1.2223226297996297	1.873447159926626	0.2616357021307628	-0.27740099151849923	1.8610859441407939	-0.6796487407039817
90	3.0	-0.29386713463745245	1.8740090109907297	-0.5666621697433095	-0.3040800246857992	1.8680755815002745	-0.5035764274614887	-0.31728704995094886	1.7286862176823037	-0.47440756543896545	-0.3392105489824797	1.5686480324546648	-0.4029298900394421	-0.2913647372796027	1.535875072248027	-0.40923842192620963	-0.300867338133687	1.5389049433789372	-0.3845649130408854	-0.34960320082338525	1.554888118677171	-0.4043575186488603	-0.28653155632348126	1.8770424510312025	-0.6250822859024101	-0.3000613195994071	1.7330376177587175	-0.6407982709108494													-0.29591952075704464	2.0456253685450987	-0.5788843289234255	-0.2617391577960692	2.120450374053096	-0.5948011271530099	-0.30670577719154846	2.040985770092	-0.49483048466733776	-0.31840107242771515	1.9503459015958509	-0.4668675790239609	-0.3103589875344996	1.8681776375235675	-0.45645252722868324	-0.2819349184215302	2.0484156360633023	-0.6671237885353626	-0.28713545176693095	1.952756478813016	-0.6902673459883589	-0.2790686280776691	1.8681358895271967	-0.6777846656682895
91	3.033333333333333	-0.2937560869762123	1.8764930075052262	-0.5670433834939345	-0.30402304951453163	1.8705049709496055	-0.5039198377021739	-0.31910734095702514	1.7305568604485988	-0.4727304233346241	-0.33929076516213746	1.5689267073109128	-0.402902997230011	-0.29228866849800667	1.5376028128906405	-0.41274151751394444	-0.3025829680278415	1.5378532037794599	-0.3825893033745026	-0.3514769212331306	1.5545230304574869	-0.4022972550957656	-0.28649790619789434	1.8807618204349754	-0.6256561795015161	-0.30224561982439185	1.7366806989996055	-0.639021673728246													-0.29388867738176805	2.0456282495420126	-0.5810157452716608	-0.25886241290174566	2.1203047963011787	-0.5938064372019362	-0.3047891650029366	2.04116138028691	-0.4968522585354733	-0.3184678020492391	1.9507895796323143	-0.46678039861267845	-0.3155222375434378	1.8691391792142806	-0.4468253233142548	-0.28188496280151754	2.049652391104681	-0.6675644033082189	-0.2825860478604463	1.9519287720669758	-0.6944873474244011	-0.27661399484713584	1.8681637356158372	-0.6762301317160885
92	3.066666666666667	-0.29379959558704066	1.8738563893614457	-0.566662045124616	-0.3040600746402353	1.8681460631094349	-0.5035525877327465	-0.3191642299882452	1.7238007000846978	-0.47201183150849046	-0.3394741243186331	1.5697321789743661	-0.40288701216291944	-0.2925543113559145	1.5358552974696094	-0.4124383064165671	-0.30267293508588194	1.538139110069129	-0.38249262142260226	-0.3514702158295462	1.554451361208716	-0.4022976721324114	-0.28671772206280655	1.8767139010972846	-0.6251828908109035	-0.3043861217067525	1.7339154987919612	-0.6450404690126021													-0.2959439775411514	2.0456215802336146	-0.5788431165356216	-0.2579360986718295	2.120151917675124	-0.5908985284305918	-0.3067295093218748	2.041120343180792	-0.49484925166451105	-0.31845143088049305	1.948833736756455	-0.46652893733134315	-0.3142226666388578	1.868680338164886	-0.4436059840469731	-0.28394753602479383	2.048517505329339	-0.6649391210248184	-0.2815979003754692	1.9591809544654133	-0.6917428604461684	-0.27627339641061116	1.877335674369515	-0.6773334895832407
